<svg width="120" height="120" viewBox="0 0 120 120" fill="none" xmlns="http://www.w3.org/2000/svg">
<rect width="120" height="120" fill="#F5F5F5"/>
<g id="&#208;&#164;&#208;&#190;&#209;&#128;&#208;&#188;&#208;&#176;">
<g id="Step=&#208;&#163;&#208;&#189;&#208;&#184;&#208;&#178;&#208;&#181;&#209;&#128;&#209;&#129;&#208;&#184;&#209;&#130;&#208;&#181;&#209;&#130;">
<rect x="-20" y="-149" width="710" height="720" rx="30" fill="white"/>
<g id="&#208;&#146;&#208;&#178;&#208;&#190;&#208;&#180;&#209;&#139;">
<g id="InputRow" clip-path="url(#clip0_0_1)">
<g id="&#208;&#146;&#208;&#178;&#208;&#190;&#208;&#180;">
<g id="Frame 1">
<rect x="1" y="1" width="118" height="118" rx="9" fill="white"/>
<g id="add_a_photo">
<mask id="mask0_0_1" style="mask-type:alpha" maskUnits="userSpaceOnUse" x="36" y="36" width="48" height="48">
<rect id="Bounding box" x="36" y="36" width="48" height="48" fill="#D9D9D9"/>
</mask>
<g mask="url(#mask0_0_1)">
<path id="add_a_photo_2" d="M41 78C40.2 78 39.5 77.7 38.9 77.1C38.3 76.5 38 75.8 38 75V49.35C38 48.5833 38.3 47.8917 38.9 47.275C39.5 46.6583 40.2 46.35 41 46.35H48.35L52 42H65.7V45H53.4L49.75 49.35H41V75H75V54.3H78V75C78 75.8 77.6917 76.5 77.075 77.1C76.4583 77.7 75.7667 78 75 78H41ZM75 49.3V45H70.7V42H75V37.65H78V42H82.35V45H78V49.3H75ZM57.975 70.65C60.3917 70.65 62.4167 69.8333 64.05 68.2C65.6833 66.5667 66.5 64.5417 66.5 62.125C66.5 59.7083 65.6833 57.6917 64.05 56.075C62.4167 54.4583 60.3917 53.65 57.975 53.65C55.5583 53.65 53.5417 54.4583 51.925 56.075C50.3083 57.6917 49.5 59.7083 49.5 62.125C49.5 64.5417 50.3083 66.5667 51.925 68.2C53.5417 69.8333 55.5583 70.65 57.975 70.65ZM57.975 67.65C56.3917 67.65 55.0833 67.125 54.05 66.075C53.0167 65.025 52.5 63.7083 52.5 62.125C52.5 60.5417 53.0167 59.2333 54.05 58.2C55.0833 57.1667 56.3917 56.65 57.975 56.65C59.5583 56.65 60.875 57.1667 61.925 58.2C62.975 59.2333 63.5 60.5417 63.5 62.125C63.5 63.7083 62.975 65.025 61.925 66.075C60.875 67.125 59.5583 67.65 57.975 67.65Z" fill="#828282"/>
</g>
</g>
<rect x="1" y="1" width="118" height="118" rx="9" stroke="#828282" stroke-width="2"/>
</g>
</g>
</g>
</g>
</g>
<rect x="-1584.5" y="-168.5" width="4484" height="759" rx="4.5" stroke="#9747FF" stroke-dasharray="10 5"/>
</g>
<defs>
<clipPath id="clip0_0_1">
<rect width="670" height="149" fill="white" transform="translate(0 -29)"/>
</clipPath>
</defs>
</svg>
